<svg width="80" height="80" viewBox="0 0 200 200" fill="none" xmlns="http://www.w3.org/2000/svg">
        <defs>
          <linearGradient id="lBowl" x1="0.3" y1="0" x2="0.7" y2="1"><stop offset="0%" stop-color="#D8D8D8"/><stop offset="100%" stop-color="#A0A0A0"/></linearGradient>
          <linearGradient id="lTape" x1="0" y1="0" x2="1" y2="0.3"><stop offset="0%" stop-color="#C8780A"/><stop offset="50%" stop-color="#F0B020"/><stop offset="100%" stop-color="#C8780A"/></linearGradient>
          <linearGradient id="lLett" x1="0" y1="0" x2="0.5" y2="1"><stop offset="0%" stop-color="#78C840"/><stop offset="100%" stop-color="#4A9820"/></linearGradient>
          <linearGradient id="lAvoc" x1="0" y1="0" x2="1" y2="1"><stop offset="0%" stop-color="#5A9820"/><stop offset="100%" stop-color="#2A6010"/></linearGradient>
          <linearGradient id="lOran" x1="0" y1="0" x2="1" y2="1"><stop offset="0%" stop-color="#F8B820"/><stop offset="100%" stop-color="#E07800"/></linearGradient>
          <linearGradient id="lToma" x1="0.3" y1="0" x2="0.7" y2="1"><stop offset="0%" stop-color="#FF5050"/><stop offset="100%" stop-color="#CC1010"/></linearGradient>
          <linearGradient id="lFork" x1="0" y1="0" x2="0.3" y2="1"><stop offset="0%" stop-color="#E8E8E8"/><stop offset="100%" stop-color="#A8A8A8"/></linearGradient>
          <filter id="lSh"><feDropShadow dx="0" dy="3" stdDeviation="4" flood-color="rgba(0,0,0,0.4)"/></filter>
          <filter id="lSs"><feDropShadow dx="0" dy="2" stdDeviation="2" flood-color="rgba(0,0,0,0.25)"/></filter>
        </defs>
        <!-- Fork -->
        <g filter="url(#lSh)" opacity="0.93">
          <rect x="52" y="120" width="9" height="48" rx="4.5" fill="url(#lFork)"/>
          <rect x="53.5" y="88" width="6" height="36" rx="3" fill="url(#lFork)"/>
          <rect x="48" y="62" width="17" height="8" rx="2" fill="url(#lFork)"/>
          <rect x="48.5" y="42" width="4" height="24" rx="2" fill="url(#lFork)"/>
          <rect x="54.5" y="40" width="4" height="26" rx="2" fill="url(#lFork)"/>
          <rect x="60.5" y="42" width="4" height="24" rx="2" fill="url(#lFork)"/>
          <rect x="55" y="42" width="1.5" height="48" rx="1" fill="rgba(255,255,255,0.38)"/>
        </g>
        <!-- Spoon -->
        <g filter="url(#lSh)" opacity="0.93">
          <rect x="139" y="120" width="9" height="48" rx="4.5" fill="url(#lFork)"/>
          <rect x="140.5" y="90" width="6" height="34" rx="3" fill="url(#lFork)"/>
          <ellipse cx="143.5" cy="72" rx="11" ry="16" fill="url(#lFork)"/>
          <ellipse cx="142" cy="70" rx="6" ry="10" fill="rgba(255,255,255,0.28)"/>
        </g>
        <!-- Bowl -->
        <g filter="url(#lSh)">
          <path d="M42 105 Q42 148 100 152 Q158 148 158 105 Z" fill="url(#lBowl)"/>
          <ellipse cx="100" cy="105" rx="58" ry="14" fill="#C8C8C8"/>
          <ellipse cx="100" cy="105" rx="58" ry="14" fill="rgba(255,255,255,0.45)" opacity="0.55"/>
          <ellipse cx="100" cy="150" rx="26" ry="4.5" fill="#909090" opacity="0.4"/>
        </g>
        <!-- Lettuce -->
        <path d="M68 104 Q60 80 72 68 Q80 58 88 72 Q92 60 100 62 Q110 58 112 72 Q120 60 132 70 Q142 82 134 102" fill="url(#lLett)" filter="url(#lSs)"/>
        <path d="M72 106 Q66 88 76 76 Q82 68 90 80" fill="#68B828" opacity="0.65"/>
        <path d="M112 106 Q118 86 128 76 Q134 68 130 84" fill="#68B828" opacity="0.65"/>
        <path d="M88 72 Q90 82 88 96" stroke="rgba(255,255,255,0.28)" stroke-width="1" fill="none"/>
        <path d="M100 62 Q100 76 100 90" stroke="rgba(255,255,255,0.22)" stroke-width="1" fill="none"/>
        <!-- Avocado -->
        <ellipse cx="82" cy="98" rx="14" ry="10" fill="url(#lAvoc)" filter="url(#lSs)"/>
        <ellipse cx="82" cy="98" rx="9" ry="6.5" fill="#78C028" opacity="0.75"/>
        <ellipse cx="82" cy="98" rx="5" ry="3.5" fill="#4A7818"/>
        <!-- Orange -->
        <ellipse cx="106" cy="95" rx="16" ry="13" fill="url(#lOran)" filter="url(#lSs)"/>
        <ellipse cx="106" cy="95" rx="12" ry="9.5" fill="#F8C830" opacity="0.55"/>
        <line x1="106" y1="83" x2="106" y2="107" stroke="rgba(255,255,255,0.28)" stroke-width="0.9"/>
        <line x1="94" y1="95" x2="118" y2="95" stroke="rgba(255,255,255,0.28)" stroke-width="0.9"/>
        <line x1="97" y1="86" x2="115" y2="104" stroke="rgba(255,255,255,0.18)" stroke-width="0.9"/>
        <line x1="115" y1="86" x2="97" y2="104" stroke="rgba(255,255,255,0.18)" stroke-width="0.9"/>
        <!-- Tomatoes -->
        <circle cx="94" cy="88" r="9" fill="url(#lToma)" filter="url(#lSs)"/>
        <path d="M92 81 Q94 78 96 81" stroke="#228B22" stroke-width="1.8" stroke-linecap="round" fill="none"/>
        <circle cx="116" cy="86" r="8" fill="url(#lToma)" filter="url(#lSs)"/>
        <path d="M114 79 Q116 76 118 79" stroke="#228B22" stroke-width="1.8" stroke-linecap="round" fill="none"/>
        <!-- Measuring Tape -->
        <path d="M36 115 Q30 128 42 138 Q60 150 100 152 Q140 150 158 138 Q170 128 164 115" stroke="url(#lTape)" stroke-width="12" fill="none" stroke-linecap="round" filter="url(#lSh)"/>
        <g stroke="rgba(0,0,0,0.28)" stroke-width="0.9" opacity="0.8">
          <line x1="50" y1="146" x2="52" y2="152"/><line x1="58" y1="150" x2="60" y2="156"/>
          <line x1="68" y1="152" x2="70" y2="158"/><line x1="78" y1="153" x2="80" y2="159"/>
          <line x1="88" y1="154" x2="90" y2="160"/><line x1="100" y1="154" x2="102" y2="160"/>
          <line x1="112" y1="154" x2="114" y2="160"/><line x1="122" y1="153" x2="124" y2="159"/>
          <line x1="132" y1="151" x2="134" y2="157"/><line x1="142" y1="148" x2="144" y2="154"/>
          <line x1="152" y1="144" x2="154" y2="150"/>
        </g>
        <path d="M36 115 Q26 122 30 132 Q32 138 38 136" stroke="url(#lTape)" stroke-width="11" fill="none" stroke-linecap="round"/>
        <path d="M164 115 Q174 122 172 132 Q170 140 162 138" stroke="url(#lTape)" stroke-width="11" fill="none" stroke-linecap="round"/>
        <!-- Green splashes -->
        <circle cx="34" cy="108" r="4" fill="#68B828" opacity="0.75"/>
        <circle cx="38" cy="118" r="2.5" fill="#78C838" opacity="0.5"/>
        <circle cx="166" cy="108" r="3.5" fill="#68B828" opacity="0.75"/>
        <circle cx="162" cy="120" r="2.2" fill="#78C838" opacity="0.5"/>
      </svg>ath d="M142 45 V135" stroke="#FAFAF8" stroke-width="2" stroke-linecap="round" opacity="0.25"/>

    <!-- Sparks -->
    <path d="M152 45 L156 55 L166 59 L156 63 L152 73 L148 63 L138 59 L148 55 Z" fill="url(#sparkGrad)"/>
  </g>
</svg>